
<svg version="1.0" xmlns="http://www.w3.org/2000/svg"
 width="512.000000pt" height="512.000000pt" viewBox="0 0 512.000000 512.000000"
 preserveAspectRatio="xMidYMid meet">

<g transform="translate(0.000000,512.000000) scale(0.100000,-0.100000)"
fill="#000000" stroke="none">
<path d="M145 5105 c-51 -18 -120 -91 -134 -141 -6 -21 -11 -96 -11 -166 l0
-128 75 0 75 0 0 125 c0 120 1 127 25 150 l24 25 2361 0 2361 0 24 -25 25 -24
0 -813 c-1 -891 3 -840 -61 -858 -46 -13 -4652 -13 -4698 0 -63 18 -60 -14
-61 658 l0 612 -75 0 -75 0 0 -624 0 -624 28 -53 c34 -66 88 -105 161 -119 34
-6 428 -10 1062 -10 l1009 0 0 -110 0 -110 -657 0 c-450 0 -671 -4 -698 -11
-53 -15 -129 -91 -144 -144 -7 -27 -11 -253 -11 -716 l0 -677 28 -53 c34 -66
88 -105 161 -119 32 -6 304 -10 687 -10 l634 0 0 -570 0 -570 300 0 300 0 0
570 0 570 343 2 342 3 3 72 3 73 -1300 2 -1299 3 -26 24 -26 24 0 664 0 664
25 24 24 25 1649 0 c1645 0 1648 0 1670 -20 l22 -21 0 -673 c0 -671 0 -673
-21 -692 -18 -16 -40 -20 -150 -23 l-130 -3 3 -72 3 -71 140 1 c154 1 192 12
246 71 67 72 64 31 67 742 2 403 -1 669 -7 710 -14 86 -49 137 -120 174 l-55
27 -703 0 -703 0 0 110 0 110 1009 0 c634 0 1028 4 1062 10 73 14 127 53 161
119 l28 53 0 825 c0 625 -3 836 -12 867 -17 55 -91 131 -143 145 -28 8 -724
11 -2410 11 -2018 -1 -2376 -3 -2410 -15z m2565 -2125 l0 -110 -150 0 -150 0
0 110 0 110 150 0 150 0 0 -110z m0 -2335 l0 -495 -150 0 -150 0 0 495 0 495
150 0 150 0 0 -495z"/>
<path d="M4370 4745 l0 -75 75 0 75 0 0 75 0 75 -75 0 -75 0 0 -75z"/>
<path d="M4670 4745 l0 -75 75 0 75 0 0 75 0 75 -75 0 -75 0 0 -75z"/>
<path d="M772 4444 c-103 -27 -172 -81 -223 -176 -32 -60 -34 -68 -34 -163 0
-89 3 -105 27 -151 54 -103 127 -161 238 -190 129 -33 261 16 340 125 l19 28
-55 46 -56 47 -47 -49 c-54 -55 -101 -70 -167 -52 -170 46 -211 270 -67 361
81 51 154 49 243 -8 l45 -28 43 60 c48 68 50 62 -37 113 -46 28 -137 53 -186
52 -16 0 -54 -7 -83 -15z"/>
<path d="M1500 4445 c-116 -33 -223 -141 -250 -256 -59 -244 159 -477 402
-429 175 34 289 170 289 345 0 93 -28 169 -87 234 -88 98 -230 140 -354 106z
m151 -146 c87 -30 140 -103 140 -194 0 -99 -59 -173 -157 -196 -157 -36 -293
130 -225 276 44 96 149 145 242 114z"/>
<path d="M2950 4105 l0 -355 75 0 75 0 0 355 0 355 -75 0 -75 0 0 -355z"/>
<path d="M3255 4448 c-3 -7 -4 -166 -3 -353 l3 -340 73 -3 72 -3 0 201 c0 111
3 199 8 196 4 -2 61 -90 127 -195 l120 -192 70 3 70 3 0 345 0 345 -72 3 -73
3 0 -196 c0 -107 -3 -195 -7 -195 -5 1 -62 87 -128 193 l-120 192 -68 3 c-48
2 -69 -1 -72 -10z"/>
<path d="M4178 4441 c-87 -35 -153 -94 -199 -181 -21 -39 -24 -59 -24 -150 0
-94 3 -110 27 -155 62 -118 169 -187 298 -193 103 -5 171 21 234 88 65 70 87
126 94 238 l5 92 -157 0 -156 0 0 -75 0 -75 75 0 c41 0 75 -3 75 -7 0 -5 -9
-23 -20 -41 -57 -94 -196 -97 -282 -5 -35 37 -48 73 -48 133 0 60 13 96 48
133 73 77 177 88 272 29 28 -18 53 -32 54 -32 6 0 76 110 76 119 0 14 -89 67
-143 85 -64 21 -170 20 -229 -3z"/>
<path d="M2106 4128 c-31 -178 -59 -330 -62 -339 -3 -13 10 -18 66 -28 39 -7
73 -11 76 -8 3 2 18 78 35 168 17 90 32 165 33 167 2 1 25 -72 52 -163 l48
-165 67 0 c78 0 62 -25 125 198 20 73 38 131 40 129 2 -1 18 -77 35 -167 18
-91 33 -167 35 -169 7 -8 144 22 144 32 0 9 -115 600 -125 645 -5 22 -10 23
-78 20 l-72 -3 -49 -177 c-27 -98 -52 -178 -56 -178 -3 0 -30 81 -59 180 l-54
180 -71 0 -72 0 -58 -322z"/>
<path d="M1340 2351 c-139 -45 -198 -177 -129 -289 24 -41 61 -63 176 -108
107 -42 131 -62 117 -102 -24 -69 -151 -58 -230 19 -49 48 -40 50 -122 -25
l-32 -30 47 -49 c58 -59 123 -94 198 -105 149 -24 280 60 293 186 10 112 -52
183 -216 246 -55 21 -103 45 -106 53 -10 25 13 52 48 59 50 9 91 -3 141 -42
25 -19 49 -34 53 -34 9 0 92 99 92 109 -1 12 -87 71 -135 92 -52 23 -154 34
-195 20z"/>
<path d="M2057 2350 c-99 -25 -191 -103 -235 -198 -22 -47 -26 -72 -27 -142 0
-73 4 -94 29 -148 101 -219 390 -275 560 -109 115 114 143 275 71 417 -30 58
-111 135 -172 161 -55 24 -169 33 -226 19z m169 -159 c77 -35 132 -134 118
-213 -29 -155 -209 -224 -329 -126 -77 64 -95 158 -47 249 49 94 162 133 258
90z"/>
<path d="M2903 2346 c-108 -35 -197 -117 -234 -215 -28 -76 -24 -204 10 -271
38 -74 86 -124 151 -159 181 -97 397 -27 488 159 23 47 27 67 27 145 0 76 -4
99 -26 146 -58 124 -169 199 -302 205 -43 3 -89 -2 -114 -10z m210 -173 c79
-55 108 -161 68 -248 -67 -145 -261 -160 -352 -27 -34 50 -39 144 -10 200 21
41 66 82 111 101 45 19 138 6 183 -26z"/>
<path d="M3502 2008 l3 -353 72 -3 73 -3 2 205 3 204 125 -199 125 -199 68 0
67 0 0 350 0 350 -75 0 -75 0 0 -197 0 -197 -122 196 -123 197 -73 1 -72 0 2
-352z"/>
<path d="M3694 1287 c-3 -8 -4 -43 -2 -78 l3 -64 75 0 75 0 0 75 0 75 -73 3
c-55 2 -74 -1 -78 -11z"/>
</g>
</svg>
