<svg xmlns="http://www.w3.org/2000/svg" viewBox="0 0 389.29 86.18">
<defs><style>.cls-1{fill:#fff;}</style></defs><g id="Layer_2" data-name="Layer 2"><g id="Layer_1-2" data-name="Layer 1">
<path class="cls-1" d="M115.92,20.13a14.47,14.47,0,0,0-4.42-2.53,18.1,18.1,0,0,0-6.63-1.07,15.74,15.74,0,0,0-8.18,2.19,16.73,16.73,0,0,0-6,5.84,15.23,15.23,0,0,0-2.24,8.11,15.69,15.69,0,0,0,2.17,8.11,16.34,16.34,0,0,0,5.82,5.86,15.52,15.52,0,0,0,8.15,2.2A15.72,15.72,0,0,0,112.27,47a17.7,17.7,0,0,0,5.94-5.47l-1.5-2.08a18,18,0,0,1-2,2.9A12.25,12.25,0,0,1,112,44.59a6.13,6.13,0,0,1-3.41,1,10.83,10.83,0,0,1-4.42-.93,16.8,16.8,0,0,1-4-2.46,18.53,18.53,0,0,1-2.78-2.78l19-10.09a6.65,6.65,0,0,0,1.87-1.7,3.83,3.83,0,0,0,.84-2.39,5,5,0,0,0-.79-2.19A10.39,10.39,0,0,0,115.92,20.13Zm-3.32,8.34a1.88,1.88,0,0,1-.82.79L96.2,37.58a10.93,10.93,0,0,1-1.4-3.67,19.9,19.9,0,0,1-.56-4.46A15,15,0,0,1,95,24.61,8.12,8.12,0,0,1,97.27,21a6.15,6.15,0,0,1,4.12-1.35,11.83,11.83,0,0,1,4.46.84,14.49,14.49,0,0,1,3.69,2.1,12.18,12.18,0,0,1,2.5,2.55,4.16,4.16,0,0,1,.86,2.15A2.24,2.24,0,0,1,112.6,28.47Z"/><path class="cls-1" d="M157.77,46.45l-.82-.18c-.48-.16-.84-.29-1.14-.42a1.85,1.85,0,0,1-.38-.24V19.38a2.66,2.66,0,0,0-1.19-2.47,5.72,5.72,0,0,0-5.34,0l-14.17,7.62V19.38a2.69,2.69,0,0,0-1.16-2.47,4.72,4.72,0,0,0-2.47-.67,6.72,6.72,0,0,0-2.89.66L123,19.68a.3.3,0,0,0-.15.26v2.5a.3.3,0,0,0,.14.25.28.28,0,0,0,.28,0L126,21.34a2.76,2.76,0,0,1,1.28-.48c.13,0,.43,0,.43.88v27.1a.29.29,0,0,0,.3.29h6.44a.29.29,0,0,0,.29-.29V27.66l12-6.35a2.64,2.64,0,0,1,1.27-.45c.29,0,.43.3.43.88V45a4,4,0,0,0,1.17,3,4.09,4.09,0,0,0,3,1.16h5.14a.29.29,0,0,0,.29-.29v-2.1A.29.29,0,0,0,157.77,46.45Z"/><path class="cls-1" d="M209,46.45l-.83-.18c-.48-.16-.83-.3-1.14-.42s-.39-.24-.39-.24V19.45A2.72,2.72,0,0,0,205.5,17a5.21,5.21,0,0,0-5.2-.06l-10.1,5.4V19.38a2.75,2.75,0,0,0-1.15-2.47,4.52,4.52,0,0,0-2.44-.67,6.22,6.22,0,0,0-2.87.66l-10,5.4V19.38a2.64,2.64,0,0,0-1.21-2.47,5.61,5.61,0,0,0-5.31,0l-5.26,2.78a.28.28,0,0,0-.15.26v2.55a.28.28,0,0,0,.13.24.3.3,0,0,0,.29,0l2.72-1.41a2.87,2.87,0,0,1,1.33-.48c.13,0,.43,0,.43.88v27.1a.29.29,0,0,0,.29.29h6.45a.29.29,0,0,0,.29-.29V25.49l7.83-4.18a2.64,2.64,0,0,1,1.27-.45c.09,0,.36,0,.36.88v27.1a.29.29,0,0,0,.3.29h6.44a.29.29,0,0,0,.3-.29V25.49l7.8-4.18a2.72,2.72,0,0,1,1.32-.45c.09,0,.36,0,.36.88V45a4,4,0,0,0,4.15,4.15H209a.29.29,0,0,0,.29-.29v-2.1A.3.3,0,0,0,209,46.45Z"/><path class="cls-1" d="M245.25,46.1c-.35-.18-.54-.32-.54-.49V32.67a15.68,15.68,0,0,0-2.17-8.15,16.45,16.45,0,0,0-5.87-5.82,15.76,15.76,0,0,0-8.13-2.17,15,15,0,0,0-5.65,1A16.64,16.64,0,0,0,218.5,20a13,13,0,0,0-2.87,3,4.83,4.83,0,0,0-1,2.64,4.05,4.05,0,1,0,8.1,0,8.46,8.46,0,0,0-.18-1.73,9.63,9.63,0,0,1-.26-2.15,2.21,2.21,0,0,1,.54-1.59,3.41,3.41,0,0,1,2.33-.56,13.2,13.2,0,0,1,3.46.56,11.93,11.93,0,0,1,4,2,11,11,0,0,1,3.2,3.74l-19,10.07a6.44,6.44,0,0,0-1.92,1.7,3.73,3.73,0,0,0-.84,2.36,5.43,5.43,0,0,0,.8,2.22,10.93,10.93,0,0,0,2.43,2.92,14.75,14.75,0,0,0,4.39,2.53,18.62,18.62,0,0,0,6.66,1.05,16.2,16.2,0,0,0,6-1.12,14.67,14.67,0,0,0,4-2.2V45a3.68,3.68,0,0,0,3.85,3.86h5.16v-2.1l-.84-.19A10.58,10.58,0,0,1,245.25,46.1Zm-7.78-3.48a6.22,6.22,0,0,1-5.8,3.09,12,12,0,0,1-5.51-1.31,14.81,14.81,0,0,1-4.25-3.11,5,5,0,0,1-1.64-3.15,2.25,2.25,0,0,1,.31-1.17,1.79,1.79,0,0,1,.84-.79L237,27.81a9.9,9.9,0,0,1,1.33,3.32,19.49,19.49,0,0,1,.61,4.86A13.56,13.56,0,0,1,237.47,42.62Z"/><path class="cls-1" d="M274.93,17.53a4.26,4.26,0,0,0-3.05-1.29,5.61,5.61,0,0,0-1.4.24A7.09,7.09,0,0,0,268.25,18a21.51,21.51,0,0,0-3,3.61c-.8,1.24-1.44,2.27-1.92,3.07V19.38a2.61,2.61,0,0,0-1.24-2.47,4.79,4.79,0,0,0-2.46-.67,6.12,6.12,0,0,0-2.82.66l-5.28,2.78a.29.29,0,0,0-.16.26v2.55a.29.29,0,0,0,.14.24.3.3,0,0,0,.29,0l2.74-1.41a2.87,2.87,0,0,1,1.33-.48.43.43,0,0,1,.31.18,1.27,1.27,0,0,1,.12.7v27.1a.29.29,0,0,0,.3.29H263a.29.29,0,0,0,.29-.29V30.44a26,26,0,0,1,2.62-3.93,4.17,4.17,0,0,1,1.77-1.31,7.64,7.64,0,0,1,2-.23l2.22,0a4.28,4.28,0,0,0,3.05-1.25,4.35,4.35,0,0,0,0-6.16Z"/><path class="cls-1" d="M303.76,32.7a20.71,20.71,0,0,0-6.61-3.27,48.07,48.07,0,0,1-6.1-2.3c-1.88-.9-2.83-1.81-2.83-2.73A4.49,4.49,0,0,1,290.94,20a9.41,9.41,0,0,1,4.37-1,4.21,4.21,0,0,1,1.42.21,1.69,1.69,0,0,1,.88.75,3.55,3.55,0,0,1,.35,1.78,7.05,7.05,0,0,1-.13,1.57,5.64,5.64,0,0,0-.08.88,3,3,0,0,0,1.62,2.71,6.33,6.33,0,0,0,3.14.88,3.54,3.54,0,0,0,2.82-1.34,4.52,4.52,0,0,0,1.07-2.95,5.29,5.29,0,0,0-1.88-4.12,12.17,12.17,0,0,0-4.33-2.42,16.15,16.15,0,0,0-4.81-.78,15.7,15.7,0,0,0-7.4,1.67,7.86,7.86,0,0,0-4.6,7.45,7.52,7.52,0,0,0,1.74,5,14.94,14.94,0,0,0,4.24,3.34,32.38,32.38,0,0,0,5.35,2.19,55.25,55.25,0,0,1,5.5,2,5.74,5.74,0,0,1,2.24,1.56,3.24,3.24,0,0,1,.49,1.83,4.4,4.4,0,0,1-1.83,3.71,9,9,0,0,1-5.52,1.41c-3.24,0-5-1-5.27-3a11.94,11.94,0,0,1-.16-1.68,3.53,3.53,0,0,0-1.22-2.75,4.23,4.23,0,0,0-2.79-1,4.09,4.09,0,0,0-3.09,1.33,4.42,4.42,0,0,0-1.22,3,5.44,5.44,0,0,0,1.2,3.16,8.44,8.44,0,0,0,3.79,2.79,17.57,17.57,0,0,0,6.8,1.12A21.8,21.8,0,0,0,301.82,48a9.12,9.12,0,0,0,4.41-3.26,7.69,7.69,0,0,0,1.34-4.32A9.34,9.34,0,0,0,303.76,32.7Z"/><path class="cls-1" d="M336.15,18.72a16.24,16.24,0,0,0-16.29,0,16.5,16.5,0,0,0-5.81,5.84,15.69,15.69,0,0,0-2.17,8.11,15.81,15.81,0,0,0,2.17,8.18,16.34,16.34,0,0,0,5.84,5.84,16.45,16.45,0,0,0,16.26,0A16.4,16.4,0,0,0,342,40.85a15.69,15.69,0,0,0,2.17-8.18A15.54,15.54,0,0,0,342,24.56,16.4,16.4,0,0,0,336.15,18.72Zm.75,23.79A5.35,5.35,0,0,1,332,45.59a10.8,10.8,0,0,1-3-.56,17.56,17.56,0,0,1-3.77-1.8,16.81,16.81,0,0,1-3.69-3.11,15.25,15.25,0,0,1-2.82-4.58,16,16,0,0,1-1.1-6.14A14,14,0,0,1,319,23a5.45,5.45,0,0,1,5.19-3.18,10.82,10.82,0,0,1,3.2.58,16.72,16.72,0,0,1,3.79,1.85,16.41,16.41,0,0,1,3.59,3.18A15.14,15.14,0,0,1,337.36,30a16.61,16.61,0,0,1,1,6A13.45,13.45,0,0,1,336.9,42.51Z"/><path class="cls-1" d="M389,16.24c-1.77,0-2.73,0-3,0-.61-.05-.76-.16-.82-.22s-.15-.25-.15-.73V7.53a.29.29,0,0,0-.29-.29h-4.13a.3.3,0,0,0-.3.28,13.87,13.87,0,0,1-1.54,6.24c-1,1.64-3.08,2.48-6.08,2.48a.29.29,0,0,0-.3.29v2.24a.29.29,0,0,0,.3.29c2.51,0,3.73.07,4.13.1.88.08,1,.27,1,.29a2.11,2.11,0,0,1,.19,1.17V45a4,4,0,0,0,4.14,4.15h5.14a.29.29,0,0,0,.3-.29v-2.1a.3.3,0,0,0-.23-.29l-.84-.18c-.36-.12-.77-.26-1.13-.42a1.87,1.87,0,0,1-.4-.24v-25c0-.8.15-1.05.21-1.12l0,0a1.19,1.19,0,0,1,.79-.32c.3,0,1.18-.1,2.92-.1a.29.29,0,0,0,.29-.29V16.53A.29.29,0,0,0,389,16.24Z"/><path class="cls-1" d="M362.34.7a8,8,0,0,0-5.26,1.59,8,8,0,0,0-2.57,4.16,22.08,22.08,0,0,0-.67,5.66v3.13a1.24,1.24,0,0,1-.14.75s-.17.15-.79.2c-.34,0-1.3,0-3,0a.29.29,0,0,0-.29.29v2.24a.29.29,0,0,0,.29.29c1.72,0,2.6.07,2.88.1.55.07.76.21.84.33s.19.31.19,1.13v25a1.06,1.06,0,0,1-.37.25,11.18,11.18,0,0,1-1.11.42l-.86.19a.29.29,0,0,0-.23.29v2.1a.29.29,0,0,0,.29.29H357a3.93,3.93,0,0,0,3.93-3.92V20.62a2.37,2.37,0,0,1,.16-1.17s.16-.21,1-.29,2.36-.1,4.11-.1a.29.29,0,0,0,.29-.29V16.53a.29.29,0,0,0-.29-.29c-3.28,0-5.6-.84-6.9-2.49a7.81,7.81,0,0,1-1.64-5.05,11.39,11.39,0,0,1,.2-2.06A4.54,4.54,0,0,1,358.51,5a1.23,1.23,0,0,1,1.05-.51,1.28,1.28,0,0,1,.93.5A2.76,2.76,0,0,1,361,6.93a4.21,4.21,0,0,0,1.3,3.07,4.08,4.08,0,0,0,3,1.31,4.14,4.14,0,0,0,3.08-1.3,4.18,4.18,0,0,0,1.3-3.13,6.68,6.68,0,0,0-2.07-4.37A7.43,7.43,0,0,0,362.34.7Z"/><path class="cls-1" d="M100.35,61.36a2.74,2.74,0,0,0,2.71-2.71,2.79,2.79,0,0,0-2.71-2.72,2.71,2.71,0,0,0-2.72,2.72A2.67,2.67,0,0,0,100.35,61.36Z"/><path class="cls-1" d="M106.7,61.36a2.74,2.74,0,0,0,2.71-2.71,2.79,2.79,0,0,0-2.71-2.72A2.71,2.71,0,0,0,104,58.65,2.66,2.66,0,0,0,106.7,61.36Z"/><path class="cls-1" d="M127.59,72.55v3.62h-7.41a3.54,3.54,0,0,1-3.73-3.5v-6.9h0V64.32h-5.55V76.17H97.83c-2.29,0-3.8-1.34-3.8-3.31V64.32H88.47v5a9.69,9.69,0,0,0,9.26,9.26h18.72v-.88a8.33,8.33,0,0,0,3.63.88h26.19V65.74h0V63.29h-9.46A9.72,9.72,0,0,0,127.59,72.55Zm13.12-6.81V76.17h-7.56v-6.8a3.67,3.67,0,0,1,3.76-3.63Z"/><path class="cls-1" d="M138.68,61.36a2.75,2.75,0,0,0,2.72-2.71,2.8,2.8,0,0,0-2.72-2.72A2.72,2.72,0,0,0,136,58.65,2.67,2.67,0,0,0,138.68,61.36Z"/><path class="cls-1" d="M205,76.17h-6.26V63.29h-5.4V76.17l-6.41,0v0h0V63.29h-5.47V76.17H170.32V63.29h-9.26a9.76,9.76,0,0,0-9.23,9.26v6.07h12.89c-.56,3.21-2.26,5.11-4.68,5.11v2.45c5.83,0,9.43-2.68,10.15-7.56h40.19V63.29H205Zm-40.14,0h-7.49V69.41a3.67,3.67,0,0,1,3.8-3.67h3.69Z"/><path class="cls-1" d="M228.3,76.82c0,3.67-1.15,5.93-3.28,6.65a4.22,4.22,0,0,1-1.44.23v2.45h1.28c5.34,0,9-4.16,9-9.39v-11h0V63.29H228.3Z"/><path class="cls-1" d="M281.16,76.17h-9.5V72.48c0-5.17-3.54-9.19-8.25-9.19H255.2v2.52h0v8.26c0,1.25-.66,2.1-1.57,2.1h-9.47V56.3h0V53.85H238.6V78.62h15.32c2.36,0,4-.59,4.88-1.8a5.62,5.62,0,0,0,4.22,1.8h23.54V63.29h-5.4Zm-14.93,0H263a2.8,2.8,0,0,1-2.46-2.82V65.81h2.85A3.07,3.07,0,0,1,266.23,69Z"/><path class="cls-1" d="M283.74,61.36a2.84,2.84,0,0,0,2.72-2.71,2.71,2.71,0,0,0-2.72-2.72,2.68,2.68,0,0,0-2.68,2.72A2.72,2.72,0,0,0,283.74,61.36Z"/><path class="cls-1" d="M297.61,83.82v-.26a3,3,0,0,0-2.82-3.13h-2.68v4.22H290.8v1.4h6.81v-1.4H294.2V81.83h.59c.36,0,.73.19.73.56v1.43Z"/><polygon class="cls-1" points="296.99 56.2 296.99 53.75 291.42 53.75 291.42 78.62 296.99 78.62 296.99 56.2"/><path class="cls-1" d="M42.87.73,31.24,39.78,42.86,28.16,54.28,39.58H50.1V51.08A2.25,2.25,0,0,0,54,52.61L73.62,31.48Z"/><polygon class="cls-1" points="66.91 78.55 66.9 78.54 53.16 64.91 29.13 40.75 27.45 39.07 39.06 0 0 39.06 0.01 39.06 23.16 62.29 39.44 78.62 66.99 78.62 66.91 78.55"/>
</g></g></svg>