
<svg version="1.0" xmlns="http://www.w3.org/2000/svg"
 width="24.000000pt" height="24.000000pt" viewBox="0 0 24.000000 24.000000"
 preserveAspectRatio="xMidYMid meet">

<g transform="translate(0.000000,24.000000) scale(0.100000,-0.100000)"
fill="#000000" stroke="none">
<path d="M71 206 c-111 -62 -22 -227 94 -174 36 16 73 88 45 88 -5 0 -10 -7
-10 -15 0 -27 -47 -65 -80 -65 -19 0 -40 9 -55 25 -66 65 14 168 96 124 16 -8
18 -13 8 -25 -9 -12 -6 -14 20 -14 28 0 31 3 31 31 0 24 -3 29 -13 21 -8 -7
-19 -6 -37 3 -31 18 -68 18 -99 1z"/>
<path d="M110 152 c0 -15 -5 -33 -12 -40 -17 -17 -2 -28 17 -12 17 14 21 80 5
80 -5 0 -10 -13 -10 -28z"/>
</g>
</svg>
